<?xml version="1.0" standalone="no"?>
<!DOCTYPE svg PUBLIC "-//W3C//DTD SVG 20010904//EN"
 "http://www.w3.org/TR/2001/REC-SVG-20010904/DTD/svg10.dtd">
<svg version="1.0" xmlns="http://www.w3.org/2000/svg"
 width="700.000000pt" height="700.000000pt" viewBox="0 0 700.000000 700.000000"
 preserveAspectRatio="xMidYMid meet">
<metadata>
Created by potrace 1.11, written by Peter Selinger 2001-2013
</metadata>
<g transform="translate(0.000000,700.000000) scale(0.100000,-0.100000)"
fill="#000000" stroke="none">
<path d="M2220 5813 c-58 -113 -153 -301 -213 -417 -59 -116 -115 -217 -124
-223 -34 -26 -71 -12 -277 107 -115 66 -211 118 -213 116 -2 -2 5 -48 16 -102
11 -55 27 -135 35 -179 15 -80 72 -371 80 -411 2 -12 7 -37 10 -55 3 -19 24
-126 46 -238 22 -112 42 -216 45 -230 2 -14 8 -47 13 -72 13 -70 -15 -108 -83
-114 -13 -1 -44 22 -85 64 -59 59 -246 259 -316 336 -101 113 -177 186 -183
179 -4 -5 -34 -72 -66 -149 -32 -77 -65 -150 -73 -162 -19 -31 -65 -37 -142
-19 -36 9 -83 18 -105 22 -22 3 -43 8 -46 10 -5 2 -98 23 -179 39 -9 2 -73 15
-143 31 -70 15 -130 25 -133 21 -3 -3 47 -165 110 -360 64 -195 116 -361 116
-370 0 -9 -5 -27 -11 -40 -11 -24 -44 -42 -245 -134 l-54 -24 93 -75 c50 -41
107 -87 126 -102 18 -15 38 -31 45 -37 9 -8 130 -107 236 -192 565 -456 685
-555 697 -578 15 -28 10 -50 -71 -269 -67 -181 -73 -201 -58 -192 4 2 50 12
102 21 52 9 106 18 120 21 14 3 34 6 45 8 11 2 34 6 50 9 17 4 46 9 65 11 20
3 47 7 60 10 26 6 40 9 145 26 33 5 71 12 85 15 45 8 374 65 400 69 38 5 99
-30 115 -67 13 -32 13 -55 1 -292 -4 -60 -9 -155 -11 -210 -3 -55 -7 -138 -10
-185 -2 -47 -7 -141 -10 -210 -3 -69 -8 -151 -10 -182 l-5 -57 114 1 114 1 -3
46 c-2 25 -6 102 -10 171 -3 69 -8 160 -10 203 l-4 78 57 -45 c71 -55 102 -70
179 -90 55 -14 263 -16 2015 -16 l1953 1 65 22 c113 40 187 99 255 204 69 106
65 0 65 1621 l0 1464 -35 70 c-89 177 -196 303 -303 355 l-57 28 -1702 3
c-1350 2 -1701 5 -1698 15 2 6 6 26 9 42 2 17 14 77 25 134 12 57 20 106 18
108 -2 2 -98 -51 -213 -117 -132 -75 -219 -120 -237 -120 -17 0 -37 9 -48 23
-17 18 -144 264 -403 774 l-31 62 -105 -206z m4240 -1231 c-65 -41 -848 -530
-1232 -770 -73 -45 -153 -95 -178 -111 -118 -75 -367 -229 -385 -238 -17 -9
-44 4 -168 82 -82 52 -151 96 -154 99 -4 4 48 172 188 599 22 65 39 120 39
123 0 5 -56 -2 -115 -15 -22 -5 -105 -23 -185 -40 -80 -18 -149 -33 -155 -35
-5 -1 -65 -13 -132 -26 -111 -22 -123 -22 -145 -8 -16 10 -45 67 -92 177 -38
88 -72 161 -75 161 -4 0 -32 -28 -63 -62 -31 -35 -80 -88 -108 -118 -29 -30
-70 -75 -93 -99 l-41 -44 -40 23 c-63 35 -219 132 -237 147 -17 14 -16 23 16
163 2 8 4 21 4 28 1 9 351 12 1714 12 l1712 0 -75 -48z m75 -1602 l0 -1179
-1886 0 -1885 0 0 167 c1 142 3 167 16 167 22 -1 106 -15 180 -30 14 -2 39 -7
55 -9 44 -7 376 -65 405 -71 14 -3 54 -10 89 -16 36 -5 68 -12 73 -15 14 -9 9
8 -64 206 -75 206 -83 249 -52 278 15 14 283 232 498 405 22 18 44 37 50 42 6
6 65 53 131 105 66 52 133 107 149 122 35 31 17 39 213 -84 l143 -89 195 123
c107 68 209 131 225 140 32 19 235 146 340 213 36 23 212 133 393 246 360 224
732 458 732 458 0 1 0 -530 0 -1179z"/>
</g>
</svg>
