<?xml version="1.0" encoding="UTF-8" standalone="no"?>
<!DOCTYPE svg PUBLIC "-//W3C//DTD SVG 1.1//EN" "http://www.w3.org/Graphics/SVG/1.1/DTD/svg11.dtd">
<svg version="1.1" xmlns="http://www.w3.org/2000/svg" xmlns:xlink="http://www.w3.org/1999/xlink" preserveAspectRatio="xMidYMid meet" viewBox="0 0 640 640" width="640" height="640"><defs><path d="M24 0L24 24L0 24L0 0L24 0Z" id="ads3efuAO"></path><path d="M599.78 173.88L600.95 174.01L602.12 174.2L603.28 174.44L604.44 174.74L605.59 175.09L606.73 175.49L607.87 175.95L609 176.46L610.13 177.03L611.26 177.65L612.37 178.32L613.49 179.05L614.59 179.83L615.69 180.67L616.79 181.55L617.88 182.5L618.97 183.49L620.05 184.54L621.12 185.65L622.19 186.81L623.26 188.02L624.31 189.28L625.37 190.6L626.41 191.98L627.46 193.4L628.49 194.89L629.53 196.42L630.55 198.01L631.57 199.65L632.59 201.35L633.6 203.1L634.6 204.9L635.6 206.76L636.6 208.68L637.58 210.64L638.57 212.66L639.54 214.74L640.52 216.86L640.52 475.42L640.48 477.19L640.37 478.94L640.2 480.67L639.95 482.39L639.64 484.08L639.26 485.74L638.82 487.39L638.31 489L637.74 490.59L637.12 492.15L636.43 493.68L635.69 495.18L634.89 496.65L634.04 498.08L633.13 499.47L632.17 500.83L631.17 502.15L630.11 503.42L629.01 504.66L627.86 505.85L626.66 507L625.43 508.11L624.15 509.16L622.83 510.17L621.47 511.13L620.08 512.03L618.65 512.89L617.18 513.68L615.69 514.43L614.16 515.11L612.6 515.74L611.01 516.31L609.39 516.81L607.75 517.26L606.08 517.63L604.39 517.95L602.68 518.19L600.94 518.37L599.19 518.48L597.42 518.51L252.68 518.51L250.91 518.48L249.16 518.37L247.43 518.19L245.71 517.95L244.02 517.63L242.36 517.26L240.71 516.81L239.1 516.31L237.51 515.74L235.95 515.11L234.42 514.43L232.92 513.68L231.46 512.89L230.02 512.03L228.63 511.13L227.27 510.17L225.95 509.16L224.68 508.11L223.44 507L222.25 505.85L221.1 504.66L219.99 503.42L218.94 502.15L217.93 500.83L216.97 499.47L216.07 498.08L215.21 496.65L214.42 495.18L213.67 493.68L212.99 492.15L212.36 490.59L211.79 489L211.29 487.39L210.85 485.74L210.47 484.08L210.15 482.39L209.91 480.67L209.73 478.94L209.62 477.19L209.59 475.42L209.59 216.86L209.62 215.09L209.73 213.34L209.91 211.61L210.15 209.9L210.47 208.21L210.85 206.54L211.29 204.9L211.79 203.28L212.36 201.69L212.99 200.13L213.67 198.6L214.42 197.1L215.21 195.64L216.07 194.21L216.97 192.81L217.93 191.46L218.94 190.14L219.99 188.86L221.1 187.62L222.25 186.43L223.44 185.28L224.68 184.18L225.95 183.12L227.27 182.11L228.63 181.16L230.02 180.25L231.46 179.4L232.92 178.6L234.42 177.86L235.95 177.17L237.51 176.54L239.1 175.98L240.71 175.47L242.36 175.03L244.02 174.65L245.71 174.34L247.43 174.09L249.16 173.91L250.91 173.81L252.68 173.77L597.42 173.77L598.61 173.8L599.78 173.88ZM252.68 259.96L252.68 475.42L597.42 475.42L597.42 259.96L425.05 367.69L252.68 259.96ZM425.05 324.6L597.42 216.86L252.68 216.86L425.05 324.6Z" id="d1iwdb4i5"></path><path d="M202.24 550.24C205.33 491.07 207.04 458.2 207.38 451.63C207.66 445.64 203.03 440.56 197.04 440.29C196.26 440.25 195.47 440.3 194.7 440.43C188.16 441.58 155.44 447.33 96.55 457.68C104.5 435.75 108.92 423.56 109.81 421.12C110.91 418.14 109.99 414.78 107.52 412.78C100.35 406.98 64.51 377.95 0 325.71C14.53 318.93 22.61 315.16 24.22 314.4C27.61 312.8 29.27 308.93 28.11 305.37C26.69 301.02 19.61 279.23 6.86 240.02C44.01 247.9 64.66 252.28 68.79 253.16C72.24 253.88 75.73 252.06 77.13 248.82C77.93 246.93 81.93 237.53 89.12 220.59C118.12 251.72 134.23 269.01 137.46 272.47C140.28 275.44 144.98 275.57 147.96 272.75C149.79 271 150.62 268.44 150.14 265.95C148.59 257.94 140.82 217.87 126.83 145.75C149.25 158.71 161.7 165.91 164.19 167.35C167.73 169.42 172.28 168.23 174.36 164.69C174.44 164.55 174.52 164.41 174.59 164.26C177.12 159.3 189.77 134.46 212.53 89.76C235.29 134.46 247.93 159.3 250.46 164.26C252.3 167.93 256.76 169.42 260.43 167.58C260.57 167.51 260.72 167.43 260.86 167.35C263.35 165.91 275.8 158.71 298.22 145.75C284.24 217.87 276.47 257.94 274.91 265.95C274.14 269.98 276.77 273.88 280.8 274.65C283.29 275.13 285.85 274.31 287.6 272.47C290.82 269.01 306.93 251.72 335.93 220.59C343.13 237.53 347.13 246.93 347.93 248.82C349.32 252.06 352.81 253.88 356.27 253.16C360.4 252.28 381.04 247.9 418.2 240.02C405.44 279.23 398.36 301.02 396.94 305.37C395.78 308.93 397.44 312.8 400.83 314.4C402.44 315.16 410.52 318.93 425.05 325.71C360.54 377.95 324.7 406.98 317.53 412.78C315.06 414.78 314.14 418.14 315.25 421.12C316.13 423.56 320.55 435.75 328.5 457.68C269.61 447.33 236.89 441.58 230.35 440.43C224.44 439.42 218.83 443.38 217.81 449.29C217.68 450.06 217.63 450.85 217.67 451.63C218.01 458.2 219.72 491.07 222.81 550.24L202.24 550.24Z" id="fvn2LvQhu"></path></defs><g><g><g><use xlink:href="#ads3efuAO" opacity="1" fill="#000000" fill-opacity="0"></use><g><use xlink:href="#ads3efuAO" opacity="1" fill-opacity="0" stroke="#000000" stroke-width="1" stroke-opacity="0"></use></g></g><g><use xlink:href="#d1iwdb4i5" opacity="1" fill="#b71c1c" fill-opacity="1"></use><g><use xlink:href="#d1iwdb4i5" opacity="1" fill-opacity="0" stroke="#000000" stroke-width="1" stroke-opacity="0"></use></g></g><g><use xlink:href="#fvn2LvQhu" opacity="1" fill="#f44336" fill-opacity="1"></use><g><use xlink:href="#fvn2LvQhu" opacity="1" fill-opacity="0" stroke="#000000" stroke-width="1" stroke-opacity="0"></use></g></g></g></g></svg>